<svg id="Calque_1" data-name="Calque 1" xmlns="http://www.w3.org/2000/svg" viewBox="0 0 128 128"><defs>

<!-- COLORS -->
<style>
.cls-1 {
    fill:#543a13;
}
.cls-2 {
    fill:#249e38;
}
</style>

</defs><path class="cls-1" d="M1.285,126.716V26.373A25.085,25.085,0,0,1,26.37,1.287h0V26.373H51.456V51.459h0A25.086,25.086,0,0,0,26.37,76.544v50.172ZM51.456,76.544V51.459H76.542V76.544Zm50.172,50.172V76.544A25.086,25.086,0,0,0,76.542,51.459h0V26.373h25.086V1.287h0a25.085,25.085,0,0,1,25.085,25.086V126.716Z"/><path d="M128,128H100.34V76.544A23.828,23.828,0,0,0,77.83,52.777V77.83H50.17V52.777A23.828,23.828,0,0,0,27.655,76.544V128H0V26.374A26.4,26.4,0,0,1,26.369,0h1.286V25.088H52.742V50.17H75.258V25.088H100.34V0h1.286A26.4,26.4,0,0,1,128,26.374Zm-25.088-2.572h22.516V26.374A23.829,23.829,0,0,0,102.912,2.607V27.66H77.83V50.2a26.405,26.405,0,0,1,25.082,26.344Zm-100.34,0H25.083V76.544A26.409,26.409,0,0,1,50.17,50.2V27.66H25.083V2.607A23.828,23.828,0,0,0,2.572,26.374Zm50.17-50.17H75.258V52.742H52.742Z"/><path class="cls-2" d="M51.46,114.17V26.379H1.291v-.006A25.086,25.086,0,0,1,26.377,1.287h75.244a25.086,25.086,0,0,1,25.086,25.086v.006H76.553V114.17a12.546,12.546,0,0,1-12.546,12.546h0A12.547,12.547,0,0,1,51.46,114.17Z"/><path d="M64.005,128a13.846,13.846,0,0,1-13.83-13.83v-86.5H.005V26.379A26.406,26.406,0,0,1,26.379,0h75.242A26.4,26.4,0,0,1,128,26.374V27.66l-50.155,0V114.17A13.847,13.847,0,0,1,64.005,128ZM2.612,25.088l50.135,0V114.17a11.261,11.261,0,0,0,22.521,0V25.093h50.12A23.829,23.829,0,0,0,101.621,2.572H26.379A23.829,23.829,0,0,0,2.612,25.088Z"/></svg>